<svg id="svg" version="1.1" xmlns="http://www.w3.org/2000/svg" xmlns:xlink="http://www.w3.org/1999/xlink" width="400" height="400" viewBox="0, 0, 400,400"><g id="svgg"><path id="path0" d="M0.000 198.857 C 0.000 308.228,0.032 397.680,0.072 397.638 C 0.418 397.274,10.561 370.685,14.560 359.657 C 22.643 337.368,29.891 313.683,32.927 299.635 C 32.980 299.389,33.272 298.091,33.575 296.751 C 36.466 283.990,38.223 272.681,39.436 259.025 C 39.888 253.941,40.098 243.805,39.875 237.816 C 39.189 219.363,36.068 201.625,29.064 176.354 C 27.799 171.793,24.330 160.332,21.661 151.895 C 21.347 150.903,20.863 149.359,20.585 148.466 C 20.307 147.572,19.696 145.623,19.226 144.134 C 17.745 139.439,14.999 130.349,14.154 127.347 C 13.707 125.758,13.144 123.768,12.904 122.924 C 2.997 88.154,4.096 60.208,16.867 22.112 C 19.641 13.837,24.421 0.801,24.858 0.318 C 25.133 0.015,24.568 0.000,12.573 0.000 L 0.000 0.000 0.000 198.857 " stroke="none" fill="#fcfcfc" fill-rule="evenodd"></path><path id="path1" d="M24.858 0.318 C 24.421 0.801,19.641 13.837,16.867 22.112 C 4.096 60.208,2.997 88.154,12.904 122.924 C 13.144 123.768,13.707 125.758,14.154 127.347 C 14.999 130.349,17.745 139.439,19.226 144.134 C 19.696 145.623,20.307 147.572,20.585 148.466 C 20.863 149.359,21.347 150.903,21.661 151.895 C 24.330 160.332,27.799 171.793,29.064 176.354 C 36.068 201.625,39.189 219.363,39.875 237.816 C 40.098 243.805,39.888 253.941,39.436 259.025 C 38.223 272.681,36.466 283.990,33.575 296.751 C 33.272 298.091,32.980 299.389,32.927 299.635 C 28.279 321.139,17.426 353.666,0.919 395.563 C 0.186 397.423,0.000 398.107,0.000 398.947 L 0.000 400.000 200.000 400.000 L 400.000 400.000 400.000 200.000 L 400.000 0.000 212.573 0.000 C 33.826 0.000,25.133 0.015,24.858 0.318 " stroke="none" fill="#fca45c" fill-rule="evenodd"></path><path id="path2" d="" stroke="none" fill="#fc100d8" fill-rule="evenodd"></path><path id="path3" d="" stroke="none" fill="#fcd484" fill-rule="evenodd"></path><path id="path4" d="" stroke="none" fill="#fca488" fill-rule="evenodd"></path></g></svg>